# xmcd
#
# Track frame offsets: 
#        150
#        19635
#        42320
#        68505
#        88797
#        110105
#        132600
#        159115
#        183232
#        202505
#        223500
#        245612
#
# Disc length: 3533 seconds
#
# Revision: 4
# Processed by: cddbd v1.5.2PL0 Copyright (c) Steve Scherf et al.
# Submitted via: ExactAudioCopyFreeDBPlugin 1.0
#
DISCID=9c0dcb0c
DTITLE=Bettye LaVette - A Woman Like Me
DYEAR=2002
DGENRE=Soul
TTITLE0=Serves Him Right
TTITLE1=The Forecast
TTITLE2=Thru the Winter
TTITLE3=Right Next Door
TTITLE4=When the Blues Catch Up to You
TTITLE5=Thinkin'Bout You
TTITLE6=A Woman Like Me
TTITLE7=It Ain't Worth it After a While
TTITLE8=When a Woman's Had Enough
TTITLE9=Salt on My Wounds
TTITLE10=Close as I'll Get to Heaven
TTITLE11=Hey, Hey, Baby (Bettye's Blues)
EXTD=
EXTT0=
EXTT1=
EXTT2=
EXTT3=
EXTT4=
EXTT5=
EXTT6=
EXTT7=
EXTT8=
EXTT9=
EXTT10=
EXTT11=
PLAYORDER=
